<svg width="24" height="30" viewBox="0 0 24 30" fill="none" xmlns="http://www.w3.org/2000/svg">
<path d="M17.3487 7.55631C18.0725 7.55402 18.9476 7.50199 19.5737 7.64736C21.0771 7.99702 22.1367 9.36809 22.2713 10.9695C22.3051 11.3739 22.3223 11.5785 22.3227 11.5831C22.8651 16.287 23.4065 20.9911 23.947 25.6955C24.0039 26.1882 24.015 26.5716 23.9803 26.8455C23.7921 28.3344 22.7013 29.5631 21.3478 29.8929C21.0558 29.9643 20.5759 30 19.9081 30C14.4192 29.998 8.93037 29.9977 3.4415 29.9992C1.69858 29.9992 0.243723 28.6052 0.019343 26.7888C-0.0125045 26.5302 -0.00502532 26.1966 0.0417809 25.7881C0.590427 21.0291 1.13835 16.2701 1.68555 11.5112C1.68603 11.5086 1.70244 11.3107 1.73477 10.9174C1.8665 9.31377 2.97175 7.99855 4.43963 7.65042C5.07441 7.4997 5.92488 7.55861 6.65086 7.55631C6.67837 7.55631 6.69212 7.54152 6.69212 7.51194C6.69863 6.68333 6.65304 5.69787 6.72686 5.00468C7.03014 2.14777 9.3152 -0.017491 12.0367 0.000106497C14.5527 0.0169389 16.7711 1.95572 17.2206 4.6007C17.3639 5.44615 17.3096 6.55479 17.306 7.51194C17.306 7.54203 17.3203 7.55683 17.3487 7.55631ZM7.90088 7.5502L16.106 7.5655C16.1198 7.5655 16.133 7.55969 16.1428 7.54936C16.1526 7.53903 16.1581 7.52502 16.1581 7.51041L16.161 5.67185C16.1619 5.08959 16.0556 4.51283 15.8481 3.97451C15.6405 3.43618 15.3358 2.94684 14.9514 2.53441C14.5669 2.12198 14.1102 1.79455 13.6074 1.5708C13.1046 1.34706 12.5654 1.23139 12.0208 1.2304H12.0063C10.9064 1.22839 9.8507 1.69359 9.07156 2.52365C8.29241 3.35371 7.8536 4.48065 7.85166 5.65655L7.84876 7.49511C7.84876 7.50972 7.85425 7.52373 7.86403 7.53406C7.8738 7.54439 7.88706 7.5502 7.90088 7.5502ZM17.3096 10.7552C17.3169 11.6229 16.1393 11.6282 16.1472 10.7353C16.1525 10.1023 16.1523 9.46449 16.1465 8.8218C16.1465 8.79477 16.1337 8.78125 16.1081 8.78125H7.89292C7.86734 8.78125 7.85455 8.79477 7.85455 8.8218C7.84925 9.47266 7.83207 10.022 7.83641 10.6734C7.84003 11.2847 7.22125 11.6374 6.78839 11.1301C6.7271 11.0261 6.69622 10.8713 6.69574 10.6657C6.69381 10.0552 6.69333 9.44205 6.69429 8.8264C6.69429 8.79885 6.68126 8.78482 6.65521 8.78431C6.24553 8.77666 5.8361 8.7759 5.42691 8.78202C5.01627 8.78814 4.70551 8.82639 4.49464 8.89678C3.5964 9.19594 2.96596 10.0544 2.88924 11.0421C2.86608 11.3451 2.85425 11.4984 2.85377 11.502C2.29741 16.3344 1.74152 21.1671 1.18612 26C1.148 26.3316 1.14824 26.5999 1.18684 26.8049C1.35042 27.6702 1.96783 28.4009 2.76112 28.6618C2.98743 28.7363 3.34813 28.7735 3.84322 28.7735C9.42136 28.774 14.9995 28.7687 20.5776 28.7575C21.6858 28.7552 22.6144 27.9189 22.812 26.7881C22.8501 26.5687 22.8477 26.2734 22.8048 25.9021C22.2518 21.1028 21.6995 16.3038 21.148 11.505C21.147 11.4989 21.1352 11.3439 21.1125 11.0399C21.0141 9.71239 19.9827 8.78431 18.7312 8.78202C18.2757 8.78151 17.8151 8.781 17.3495 8.78049C17.3391 8.78049 17.3291 8.78484 17.3218 8.79259C17.3145 8.80034 17.3104 8.81085 17.3104 8.8218C17.3041 9.46858 17.3039 10.1131 17.3096 10.7552Z" fill="black"/>
</svg>
