<svg width="32" height="32" viewBox="0 0 32 32" fill="none" xmlns="http://www.w3.org/2000/svg">
<circle cx="16.0002" cy="13.9318" r="5.68966" stroke="black"/>
<circle cx="16" cy="16" r="15" stroke="black"/>
<mask id="path-3-inside-1_385_11467" fill="white">
<path d="M7.20703 28.4845C7.20703 23.6282 11.1438 19.6211 16.0001 19.6211V19.6211C20.8564 19.6211 24.7932 23.6282 24.7932 28.4845V28.4845C24.7932 28.7294 24.5947 28.9314 24.3499 28.9314H7.65038C7.40553 28.9314 7.20703 28.7294 7.20703 28.4845V28.4845Z"/>
</mask>
<path d="M6.20703 27.607C6.20703 22.6442 10.2302 18.6211 15.193 18.6211H16.8073C21.7701 18.6211 25.7932 22.6442 25.7932 27.607L23.7932 28.4142C23.7932 24.1102 20.3041 20.6211 16.0001 20.6211C11.6961 20.6211 8.20703 24.1102 8.20703 28.4142L6.20703 27.607ZM24.7932 28.9314H7.20703H24.7932ZM7.53142 28.9314C6.79998 28.9314 6.20703 28.3385 6.20703 27.607V27.607C6.20703 22.6442 10.2302 18.6211 15.193 18.6211L16.0001 20.6211C11.6961 20.6211 8.20703 24.1102 8.20703 28.4142V28.4881C8.20703 28.7329 8.20703 28.9314 8.20703 28.9314H7.53142ZM16.8073 18.6211C21.7701 18.6211 25.7932 22.6442 25.7932 27.607V27.607C25.7932 28.3385 25.2003 28.9314 24.4688 28.9314H23.7932C23.7932 28.9314 23.7932 28.7329 23.7932 28.4881V28.4142C23.7932 24.1102 20.3041 20.6211 16.0001 20.6211L16.8073 18.6211Z" fill="black" mask="url(#path-3-inside-1_385_11467)"/>
</svg>
