<svg width="200" height="35" viewBox="0 0 200 35" fill="none" xmlns="http://www.w3.org/2000/svg">
<path d="M3.888 0.907999C4.8 0.907999 5.592 1.22 6.264 1.844C6.936 2.468 7.272 3.26 7.272 4.22L7.128 22.4L7.56 21.644L23.796 1.376H24.552V25.964H22.32L22.428 6.02L21.924 6.812L10.404 21.5L6.408 26H5.04V4.256C5.04 3.92 4.92 3.62 4.68 3.356C4.44 3.092 4.164 2.96 3.852 2.96C3.66 2.96 3.456 3.008 3.24 3.104C3.024 3.2 2.856 3.344 2.736 3.536L1.044 2.384C1.356 1.928 1.764 1.568 2.268 1.304C2.772 1.04 3.312 0.907999 3.888 0.907999ZM43.137 8V10.016H33.165V26H31.005V8H43.137ZM108.404 26.828C106.1 26.828 104.012 26.252 102.14 25.1C100.292 23.924 98.8396 22.352 97.7836 20.384C96.7276 18.392 96.1996 16.232 96.1996 13.904C96.1996 11.504 96.7516 9.272 97.8556 7.208C98.9596 5.12 100.46 3.464 102.356 2.24C104.252 1.016 106.34 0.403999 108.62 0.403999C110.036 0.403999 111.392 0.619999 112.688 1.052C114.008 1.46 115.076 2.072 115.892 2.888C116.732 3.704 117.152 4.688 117.152 5.84C117.152 6.776 116.816 7.58 116.144 8.252C115.496 8.9 114.716 9.224 113.804 9.224C113.084 9.224 112.4 8.984 111.752 8.504L113.012 6.92C113.324 7.112 113.6 7.208 113.84 7.208C114.152 7.208 114.416 7.076 114.632 6.812C114.848 6.548 114.956 6.212 114.956 5.804C114.956 5.108 114.62 4.508 113.948 4.004C113.3 3.5 112.484 3.116 111.5 2.852C110.516 2.588 109.568 2.456 108.656 2.456C106.712 2.456 104.948 2.984 103.364 4.04C101.804 5.072 100.58 6.464 99.6916 8.216C98.8036 9.968 98.3596 11.864 98.3596 13.904C98.3596 15.872 98.7796 17.696 99.6196 19.376C100.484 21.032 101.672 22.352 103.184 23.336C104.72 24.296 106.472 24.776 108.44 24.776C110.168 24.776 111.776 24.392 113.264 23.624C114.776 22.832 116 21.752 116.936 20.384L118.592 21.536C117.416 23.264 115.928 24.584 114.128 25.496C112.328 26.384 110.42 26.828 108.404 26.828ZM127.406 9.98H120.53V8H136.442V9.98H129.566V26H127.406V9.98ZM152.951 8H155.183L155.147 22.976C155.147 23.312 155.255 23.6 155.471 23.84C155.711 24.056 155.987 24.164 156.299 24.164C156.779 24.164 157.127 23.96 157.343 23.552L158.927 24.74C158.735 25.148 158.399 25.496 157.919 25.784C157.439 26.048 156.899 26.18 156.299 26.18C155.339 26.18 154.547 25.88 153.923 25.28C153.299 24.68 152.987 23.9 152.987 22.94V11.348L142.295 26H140.063L140.027 13.184C140.027 11.288 139.523 9.896 138.515 9.008L139.955 7.568C140.531 7.928 141.047 8.504 141.503 9.296C141.959 10.064 142.187 10.892 142.187 11.78V22.58L152.951 8ZM162.386 26.468C161.33 26.468 160.478 26.048 159.83 25.208L161.414 23.984C161.678 24.32 162.014 24.488 162.422 24.488C162.83 24.488 163.142 24.356 163.358 24.092C163.574 23.804 163.778 23.36 163.97 22.76C164.426 21.32 164.714 19.292 164.834 16.676C164.978 14.06 165.05 11.144 165.05 7.928L176.858 7.964V26H174.698V9.908H167.066C167.042 12.404 166.946 14.96 166.778 17.576C166.61 20.192 166.322 22.124 165.914 23.372C165.578 24.404 165.146 25.184 164.618 25.712C164.09 26.216 163.346 26.468 162.386 26.468ZM182.491 26.468C182.203 26.468 181.891 26.432 181.555 26.36C181.219 26.288 180.955 26.192 180.763 26.072L181.915 24.416C182.083 24.536 182.275 24.572 182.491 24.524C182.803 24.452 183.295 24.044 183.967 23.3C184.519 22.676 185.023 22.064 185.479 21.464C186.487 20.216 187.159 19.436 187.495 19.124C187.759 18.884 188.071 18.716 188.431 18.62C188.263 18.62 187.831 18.632 187.135 18.656C186.463 18.656 185.791 18.548 185.119 18.332C184.471 18.092 183.859 17.708 183.283 17.18C182.707 16.676 182.275 16.1 181.987 15.452C181.699 14.78 181.555 14.084 181.555 13.364C181.555 12.044 181.999 10.904 182.887 9.944C183.943 8.816 185.359 8.168 187.135 8H195.595V26H193.435V18.44C192.787 18.44 191.983 18.632 191.023 19.016C190.063 19.4 189.319 19.904 188.791 20.528L187.999 21.572C187.711 21.932 187.207 22.556 186.487 23.444C185.767 24.332 185.263 24.92 184.975 25.208C184.087 26.048 183.259 26.468 182.491 26.468ZM184.327 15.128C184.831 15.824 185.443 16.268 186.163 16.46C186.907 16.628 187.999 16.7 189.439 16.676L193.435 16.64V9.98L189.367 9.944C188.311 9.92 187.507 9.956 186.955 10.052C186.403 10.124 185.923 10.268 185.515 10.484C184.915 10.796 184.459 11.204 184.147 11.708C183.859 12.212 183.715 12.752 183.715 13.328C183.715 13.976 183.919 14.576 184.327 15.128Z" fill="black"/>
<path fill-rule="evenodd" clip-rule="evenodd" d="M53.56 26.648C55.216 26.648 56.632 26.228 57.808 25.388C58.984 24.548 59.872 23.432 60.472 22.04C61.072 20.648 61.372 19.112 61.372 17.432C61.372 15.7378 61.0694 14.2252 60.4643 12.8941C60.6065 12.8287 60.7563 12.7695 60.9138 12.7166C61.5287 12.5258 62.1874 12.4305 62.8902 12.4305C63.6807 12.4305 64.4127 12.5656 65.0861 12.8358C65.155 12.8629 65.2219 12.8904 65.2868 12.9185C64.689 14.2436 64.3901 15.7482 64.3901 17.432C64.3901 19.112 64.6901 20.648 65.2901 22.04C65.8901 23.432 66.7781 24.548 67.9541 25.388C69.1301 26.228 70.5461 26.648 72.2021 26.648C73.3781 26.648 74.4341 26.396 75.3701 25.892C76.3061 25.388 77.0621 24.656 77.6381 23.696C77.6381 24.512 77.9501 25.208 78.5741 25.784C79.2221 26.36 79.9661 26.648 80.8061 26.648C81.3821 26.648 81.8861 26.54 82.3181 26.324C82.7741 26.132 83.1821 25.784 83.5421 25.28L81.9941 24.056C81.7301 24.464 81.3821 24.668 80.9501 24.668C80.6141 24.668 80.3261 24.548 80.0861 24.308C79.8701 24.044 79.7621 23.672 79.7621 23.192V8.324H77.6021C76.9541 8.228 76.2101 8.156 75.3701 8.108C74.5301 8.036 73.8341 8 73.2821 8C71.4821 8 69.9101 8.396 68.5661 9.188C67.5772 9.77077 66.7572 10.529 66.1061 11.4626C65.9043 11.3967 65.6961 11.3379 65.4814 11.2861C64.6615 11.0954 63.8124 11 62.9341 11C61.7256 11 60.6409 11.1656 59.6797 11.4967C59.0249 10.5474 58.197 9.77786 57.196 9.188C55.852 8.396 54.28 8 52.48 8C51.928 8 51.232 8.036 50.392 8.108C49.552 8.156 48.808 8.228 48.16 8.324H46V21V23V26V30V35H48.16V30V26V23.7553C48.7314 24.6862 49.4754 25.3984 50.392 25.892C51.328 26.396 52.384 26.648 53.56 26.648ZM53.524 24.704C52.444 24.704 51.472 24.44 50.608 23.912C49.744 23.384 49.096 22.688 48.664 21.824C48.328 21.128 48.16 20.36 48.16 19.52V10.088L50.536 10.016L52.624 9.944C54.808 9.944 56.452 10.628 57.556 11.996C58.66 13.364 59.212 15.152 59.212 17.36C59.212 19.4 58.732 21.14 57.772 22.58C56.788 23.996 55.372 24.704 53.524 24.704ZM72.2381 24.704C73.3181 24.704 74.2901 24.44 75.1541 23.912C76.0181 23.384 76.6661 22.688 77.0981 21.824C77.4341 21.128 77.6021 20.36 77.6021 19.52V10.088L75.2261 10.016L73.1381 9.944C70.9541 9.944 69.3101 10.628 68.2061 11.996C67.1021 13.364 66.5501 15.152 66.5501 17.36C66.5501 19.4 67.0301 21.14 67.9901 22.58C68.9741 23.996 70.3901 24.704 72.2381 24.704Z" fill="black"/>
</svg>
