<svg width="66" height="42" viewBox="0 0 66 42" fill="none" xmlns="http://www.w3.org/2000/svg">
<path d="M65.9997 21.4874C65.9997 32.7432 57.166 42.0003 46.2001 42.0003C35.3356 42.0003 26.4004 32.7432 26.4004 21.4874C26.4004 10.2317 35.2341 0.974609 46.0985 0.974609C57.166 0.974609 65.9997 10.2317 65.9997 21.4874Z" fill="#F9B50B"/>
<path d="M39.4978 21.5926C39.4978 20.1199 39.2947 18.6472 39.0916 17.2797H26.9072C27.0088 16.5433 27.2118 15.9122 27.4149 15.0706H38.2794C38.0763 14.3342 37.7717 13.5979 37.4671 12.8615H28.2272C28.5318 12.1252 28.938 11.494 29.3441 10.6525H36.3502C35.944 9.9161 35.4363 9.17974 34.8271 8.44338H30.9687C31.5779 7.70702 32.1871 7.07586 32.9994 6.3395C29.5472 2.97329 24.8765 0.974609 19.6981 0.974609C8.93523 1.29019 0 10.2317 0 21.4874C0 32.7432 8.8337 42.0003 19.7997 42.0003C24.978 42.0003 29.5472 39.8964 33.101 36.6354C33.8117 36.0042 34.421 35.2678 35.1317 34.4263H31.0702C30.5626 33.7951 30.0549 33.0588 29.6487 32.3224H36.5532C36.9594 31.6912 37.3655 30.9549 37.6701 30.1133H28.4303C28.1257 29.4822 27.8211 28.7458 27.618 27.9043H38.4824C39.0916 26.0108 39.4978 23.9069 39.4978 21.5926Z" fill="#C8191C"/>
<path d="M26.8059 26.7465L27.1105 24.853C27.0089 24.853 26.8059 24.9582 26.6028 24.9582C25.892 24.9582 25.7905 24.5374 25.892 24.327L26.5013 20.54H27.6182L27.9228 18.4362H26.9074L27.1105 17.1738H24.9782C24.9782 17.1738 23.7598 24.327 23.7598 25.1686C23.7598 26.4309 24.4705 27.0621 25.4859 27.0621C26.0951 27.0621 26.6028 26.8517 26.8059 26.7465Z" fill="white"/>
<path d="M27.5156 23.2753C27.5156 26.3259 29.5464 27.0623 31.1709 27.0623C32.694 27.0623 33.4048 26.7467 33.4048 26.7467L33.8109 24.6428C33.8109 24.6428 32.694 25.1688 31.5771 25.1688C29.2417 25.1688 29.6479 23.3805 29.6479 23.3805H33.9124C33.9124 23.3805 34.2171 22.0129 34.2171 21.3818C34.2171 20.0143 33.5063 18.226 31.1709 18.226C29.1402 18.1208 27.5156 20.5402 27.5156 23.2753ZM31.1709 20.1195C32.2879 20.1195 32.0848 21.487 32.0848 21.5922H29.7494C29.851 21.487 30.054 20.1195 31.1709 20.1195Z" fill="white"/>
<path d="M44.4722 26.7476L44.8783 24.3282C44.8783 24.3282 43.8629 24.8541 43.0507 24.8541C41.6291 24.8541 40.9184 23.697 40.9184 22.3295C40.9184 19.6996 42.1368 18.3321 43.6599 18.3321C44.6752 18.3321 45.5891 18.9633 45.5891 18.9633L45.8937 16.649C45.8937 16.649 44.6752 16.123 43.4568 16.123C41.0199 16.123 38.6846 18.3321 38.6846 22.4347C38.6846 25.1697 39.903 26.958 42.4414 26.958C43.3553 27.0632 44.4722 26.7476 44.4722 26.7476Z" fill="white"/>
<path d="M15.332 18.1211C13.9105 18.1211 12.7936 18.5419 12.7936 18.5419L12.489 20.4354C12.489 20.4354 13.4028 20.0146 14.8243 20.0146C15.5351 20.0146 16.1443 20.1198 16.1443 20.7509C16.1443 21.1717 16.0428 21.2769 16.0428 21.2769H15.1289C13.3013 21.2769 11.3721 22.0133 11.3721 24.5379C11.3721 26.5366 12.5905 26.9574 13.4028 26.9574C14.8243 26.9574 15.5351 26.0106 15.6366 26.0106L15.5351 26.8522H17.2612L18.0735 20.8561C18.0735 18.2263 16.0428 18.1211 15.332 18.1211ZM15.7382 22.96C15.7382 23.2756 15.5351 25.0639 14.3166 25.0639C13.7074 25.0639 13.5043 24.5379 13.5043 24.2223C13.5043 23.6964 13.809 22.96 15.4335 22.96C15.6366 22.96 15.7382 22.96 15.7382 22.96Z" fill="white"/>
<path d="M20.1038 26.9571C20.6115 26.9571 23.2515 27.0623 23.2515 24.1169C23.2515 21.3818 20.7131 21.9078 20.7131 20.8559C20.7131 20.3299 21.1192 20.1195 21.83 20.1195C22.1346 20.1195 23.2515 20.2247 23.2515 20.2247L23.5561 18.226C23.5561 18.226 22.8453 18.0156 21.5254 18.0156C20.0023 18.0156 18.3777 18.6468 18.3777 20.8559C18.3777 23.3805 21.0177 23.1701 21.0177 24.1169C21.0177 24.748 20.3069 24.8532 19.7992 24.8532C18.8854 24.8532 17.87 24.5376 17.87 24.5376L17.5654 26.5363C17.7685 26.7467 18.3777 26.9571 20.1038 26.9571Z" fill="white"/>
<path d="M61.936 16.4375L61.5298 19.3829C61.5298 19.3829 60.7175 18.331 59.4991 18.331C57.5699 18.331 55.9453 20.7505 55.9453 23.5907C55.9453 25.379 56.7576 27.1673 58.5853 27.1673C59.8037 27.1673 60.616 26.3257 60.616 26.3257L60.5145 27.0621H62.6467L64.1698 16.6479L61.936 16.4375ZM60.9206 22.118C60.9206 23.2751 60.4129 24.853 59.1945 24.853C58.4837 24.853 58.0776 24.2219 58.0776 23.0647C58.0776 21.2764 58.7883 20.2245 59.8037 20.2245C60.5145 20.3297 60.9206 20.8556 60.9206 22.118Z" fill="white"/>
<path d="M3.85788 26.8517L5.07632 19.0673L5.2794 26.8517H6.70091L9.4424 19.0673L8.3255 26.8517H10.5593L12.2854 16.4375H8.83318L6.70091 22.8543L6.59937 16.4375H3.55327L1.82715 26.8517H3.85788Z" fill="white"/>
<path d="M36.351 26.8527C36.9602 23.2761 37.0617 20.3307 38.5848 20.8567C38.7879 19.4892 39.0925 18.858 39.2955 18.332H38.8894C37.9756 18.332 37.1633 19.5944 37.1633 19.5944L37.3663 18.4372H35.3356L34.0156 26.8527H36.351Z" fill="white"/>
<path d="M49.3476 18.1211C47.9261 18.1211 46.8092 18.5419 46.8092 18.5419L46.5046 20.4354C46.5046 20.4354 47.4184 20.0146 48.8399 20.0146C49.5507 20.0146 50.1599 20.1198 50.1599 20.7509C50.1599 21.1717 50.0584 21.2769 50.0584 21.2769H49.1446C47.3169 21.2769 45.3877 22.0133 45.3877 24.5379C45.3877 26.5366 46.6061 26.9574 47.4184 26.9574C48.8399 26.9574 49.5507 26.0106 49.6522 26.0106L49.5507 26.8522H51.4799L52.2922 20.8561C52.2922 18.2263 50.0584 18.1211 49.3476 18.1211ZM49.8553 22.96C49.8553 23.2756 49.6522 25.0639 48.4338 25.0639C47.8246 25.0639 47.6215 24.5379 47.6215 24.2223C47.6215 23.6964 47.9261 22.96 49.5507 22.96C49.7538 22.96 49.7538 22.96 49.8553 22.96Z" fill="white"/>
<path d="M53.9164 26.8527C54.5256 23.2761 54.6272 20.3307 56.1502 20.8567C56.3533 19.4892 56.6579 18.858 56.861 18.332H56.4548C55.541 18.332 54.7287 19.5944 54.7287 19.5944L54.9318 18.4372H52.901L51.5811 26.8527H53.9164Z" fill="white"/>
</svg>
