<svg width="111" height="34" viewBox="0 0 111 34" fill="none" xmlns="http://www.w3.org/2000/svg">
<path d="M99.048 0.685547H77.7939C79.032 7.88491 85.8416 14.6608 93.2702 14.6608H110.191C110.397 14.0256 110.397 12.9668 110.397 12.3316C110.397 5.9792 105.239 0.685547 99.048 0.685547Z" fill="url(#paint0_linear_612_4766)"/>
<path d="M79.6504 15.9297V33.5046H89.9679V24.1878H99.0473C104 24.1878 108.333 20.5881 109.778 15.9297H79.6504Z" fill="#4FAD50"/>
<path d="M43.333 0.685547V33.2945H52.4125C52.4125 33.2945 54.6823 33.2944 55.9204 30.9652C62.1109 18.4722 63.9681 14.6608 63.9681 14.6608H65.2062V33.2945H75.5237V0.685547H66.4443C66.4443 0.685547 64.1744 0.897306 62.9363 3.01477C57.7776 13.8138 54.8887 19.3192 54.8887 19.3192H53.6505V0.685547H43.333Z" fill="#4FAD50"/>
<path d="M0 33.5073V0.898438H10.3175C10.3175 0.898438 13.2065 0.898431 14.8573 5.55684C18.9843 17.8381 19.397 19.5321 19.397 19.5321C19.397 19.5321 20.2224 16.5676 23.9367 5.55684C25.5875 0.898431 28.4764 0.898438 28.4764 0.898438H38.7939V33.5073H28.4764V15.9324H27.2383L21.4605 33.5073H16.9208L11.143 15.9324H9.90487V33.5073H0Z" fill="#4FAD50"/>
<defs>
<linearGradient id="paint0_linear_612_4766" x1="77.7572" y1="7.77333" x2="110.324" y2="7.77333" gradientUnits="userSpaceOnUse">
<stop stop-color="#27B1E6"/>
<stop offset="1" stop-color="#148ACA"/>
</linearGradient>
</defs>
</svg>
