<svg width="105" height="34" viewBox="0 0 105 34" fill="none" xmlns="http://www.w3.org/2000/svg">
<path d="M97.4033 1.1543H90.8654C88.8888 1.1543 87.3683 1.77945 86.456 3.8112L73.9883 33.0371H82.8069C82.8069 33.0371 84.3274 29.1299 84.6315 28.1922C85.5438 28.1922 94.2104 28.1922 95.4268 28.1922C95.7308 29.2862 96.4911 32.8808 96.4911 32.8808H104.397L97.4033 1.1543ZM87.0642 21.628C87.8245 19.7526 90.4092 12.7196 90.4092 12.7196C90.4092 12.8759 91.1695 10.8442 91.4736 9.75015L92.0817 12.5633C92.0817 12.5633 93.7542 20.2215 94.0583 21.7843H87.0642V21.628Z" fill="#3362AB"/>
<path d="M74.5962 22.5659C74.5962 29.13 68.8184 33.5061 59.8477 33.5061C56.0466 33.5061 52.3975 32.7246 50.4209 31.7869L51.6373 24.5976L52.7016 25.0665C55.4384 26.3168 57.263 26.7857 60.608 26.7857C63.0407 26.7857 65.6255 25.8479 65.6255 23.6599C65.6255 22.2533 64.5612 21.3156 61.2162 19.7527C58.0232 18.1898 53.7659 15.6892 53.7659 11.1569C53.7659 4.90533 59.6957 0.685547 68.0582 0.685547C71.2512 0.685547 73.988 1.3107 75.6605 2.09214L74.4442 8.96882L73.836 8.34367C72.3155 7.71851 70.3389 7.09336 67.45 7.09336C64.2571 7.24965 62.7366 8.65624 62.7366 9.90655C62.7366 11.3131 64.5612 12.4072 67.45 13.8138C72.3155 16.1581 74.5962 18.815 74.5962 22.5659Z" fill="#3362AB"/>
<path d="M0.397461 1.46695L0.549507 0.841797H13.6255C15.45 0.841797 16.8184 1.46695 17.2746 3.4987L20.1634 17.5646C17.2746 10.0628 10.5845 3.96756 0.397461 1.46695Z" fill="#F9B50B"/>
<path d="M38.5608 1.15238L25.3328 32.8789H16.3621L8.75977 6.30989C14.2334 9.90452 18.7948 15.5309 20.4673 19.4381L21.3796 22.7201L29.5901 0.996094H38.5608V1.15238Z" fill="#3362AB"/>
<path d="M42.0579 0.996094H50.4205L45.0989 32.8789H36.7363L42.0579 0.996094Z" fill="#3362AB"/>
</svg>
